<svg width="80" height="80" viewBox="0 0 80 80" fill="none" xmlns="http://www.w3.org/2000/svg">
<path d="M39.6747 10C30.3209 10 24.2624 13.8324 19.5059 20.6671C18.643 21.907 18.909 23.6069 20.1127 24.5195L25.1679 28.3526C26.3835 29.2743 28.1131 29.0588 29.0647 27.8665C32.0002 24.1891 34.1776 22.0717 38.7628 22.0717C42.368 22.0717 46.8272 24.3919 46.8272 27.8879C46.8272 30.5307 44.6455 31.8879 41.0858 33.8836C36.9347 36.211 31.4414 39.1074 31.4414 46.353V47.5C31.4414 49.0533 32.7006 50.3125 34.2539 50.3125H42.7466C44.2999 50.3125 45.5591 49.0533 45.5591 47.5V46.8235C45.5591 41.8008 60.239 41.5916 60.239 28C60.2391 17.7644 49.6217 10 39.6747 10ZM38.5003 53.7647C34.0242 53.7647 30.3826 57.4063 30.3826 61.8824C30.3826 66.3584 34.0242 70 38.5003 70C42.9764 70 46.618 66.3584 46.618 61.8823C46.618 57.4062 42.9764 53.7647 38.5003 53.7647Z" fill="#CDCDCD"/>
</svg>
