<svg width="80" height="80" viewBox="0 0 80 80" fill="none" xmlns="http://www.w3.org/2000/svg">
<path d="M57.375 68C57.375 53.5025 49.54 41.75 39.875 41.75C30.21 41.75 22.375 53.5025 22.375 68M57.375 68H59.75M57.375 68H22.375M22.375 68H20" stroke="#8F8F8F" stroke-width="7" stroke-linecap="round"/>
<path fill-rule="evenodd" clip-rule="evenodd" d="M39.875 38.25C45.3726 38.25 50.2782 34.4474 53.4864 28.5C49.5978 25.5 47 26 39.875 28.5C34.175 30.5 28.4257 29.3333 26.2636 28.5C29.4718 34.4474 34.3774 38.25 39.875 38.25Z" fill="#8F8F8F"/>
<path d="M22.375 12L20 12M22.375 12L57.375 12M22.375 12C22.375 18.251 23.8317 23.9917 26.2636 28.5M57.375 12L59.75 12M57.375 12C57.375 18.251 55.9183 23.9917 53.4864 28.5M26.2636 28.5C29.4718 34.4474 34.3774 38.25 39.875 38.25C45.3726 38.25 50.2782 34.4474 53.4864 28.5M26.2636 28.5C28.4257 29.3333 34.175 30.5 39.875 28.5C47 26 49.5978 25.5 53.4864 28.5" stroke="#8F8F8F" stroke-width="7" stroke-linecap="round"/>
</svg>
