<svg width="80" height="80" viewBox="0 0 80 80" fill="none" xmlns="http://www.w3.org/2000/svg">
<path d="M53.3333 33.6667C53.3333 24.4583 43.6354 17 31.6667 17C19.6979 17 10 24.4583 10 33.6667C10 37.2396 11.4688 40.5312 13.9583 43.25C12.5625 46.3958 10.2604 48.8958 10.2292 48.9271C10 49.1667 9.9375 49.5208 10.0729 49.8333C10.2083 50.1458 10.5 50.3333 10.8333 50.3333C14.6458 50.3333 17.8021 49.0521 20.0729 47.7292C23.4271 49.3646 27.3958 50.3333 31.6667 50.3333C43.6354 50.3333 53.3333 42.875 53.3333 33.6667ZM66.0417 56.5833C68.5312 53.875 70 50.5729 70 47C70 40.0312 64.4271 34.0625 56.5313 31.5729C56.625 32.2604 56.6667 32.9583 56.6667 33.6667C56.6667 44.6979 45.4479 53.6667 31.6667 53.6667C30.5417 53.6667 29.4479 53.5833 28.3646 53.4687C31.6458 59.4583 39.3542 63.6667 48.3333 63.6667C52.6042 63.6667 56.5729 62.7083 59.9271 61.0625C62.1979 62.3854 65.3542 63.6667 69.1667 63.6667C69.5 63.6667 69.8021 63.4688 69.9271 63.1667C70.0625 62.8646 70 62.5104 69.7708 62.2604C69.7396 62.2292 67.4375 59.7396 66.0417 56.5833Z" fill="#8F8F8F"/>
</svg>
