<svg width="80" height="80" viewBox="0 0 80 80" fill="none" xmlns="http://www.w3.org/2000/svg">
<path d="M62 26.875C62 21.6953 57.8047 17.5 52.625 17.5C47.4453 17.5 43.25 21.6953 43.25 26.875C43.25 31.1406 46.0977 34.7383 49.9883 35.875C49.918 37.7617 49.4961 39.2148 48.6992 40.1992C46.8945 42.4492 42.9219 42.8242 38.7148 43.2109C35.4102 43.5156 31.9883 43.8437 29.1875 45.1914V28.3164C32.9961 27.1211 35.75 23.5703 35.75 19.375C35.75 14.1953 31.5547 10 26.375 10C21.1953 10 17 14.1953 17 19.375C17 23.5703 19.7539 27.1211 23.5625 28.3164V51.6719C19.7539 52.8789 17 56.4297 17 60.625C17 65.8047 21.1953 70 26.375 70C31.5547 70 35.75 65.8047 35.75 60.625C35.75 56.6406 33.2656 53.2305 29.75 51.8828C30.1133 51.2734 30.6641 50.7344 31.4961 50.3125C33.3945 49.3516 36.2305 49.0938 39.2422 48.8125C44.1875 48.3555 49.7891 47.8281 53.0938 43.7266C54.7344 41.6875 55.5664 39.0625 55.625 35.7695C59.3281 34.5039 62 31 62 26.875ZM26.375 17.5C27.4063 17.5 28.25 18.3437 28.25 19.375C28.25 20.4063 27.4063 21.25 26.375 21.25C25.3437 21.25 24.5 20.4063 24.5 19.375C24.5 18.3437 25.3437 17.5 26.375 17.5ZM26.375 62.5C25.3437 62.5 24.5 61.6563 24.5 60.625C24.5 59.5937 25.3437 58.75 26.375 58.75C27.4063 58.75 28.25 59.5937 28.25 60.625C28.25 61.6563 27.4063 62.5 26.375 62.5ZM52.625 25C53.6563 25 54.5 25.8437 54.5 26.875C54.5 27.9063 53.6563 28.75 52.625 28.75C51.5937 28.75 50.75 27.9063 50.75 26.875C50.75 25.8437 51.5937 25 52.625 25Z" fill="#8F8F8F"/>
<path d="M53 34.5C53 40.5 50.5 45.5 40.5 46C29 46.575 26.8333 49.8333 26.5 52V26.5" stroke="#8F8F8F" stroke-width="6" stroke-linecap="square"/>
</svg>
